<svg height="200px" width="200px" version="1.1" id="Layer_1" xmlns="http://www.w3.org/2000/svg" xmlns:xlink="http://www.w3.org/1999/xlink" viewBox="0 0 512 512" xml:space="preserve" fill="#000000"><g id="SVGRepo_bgCarrier" stroke-width="0"></g><g id="SVGRepo_tracerCarrier" stroke-linecap="round" stroke-linejoin="round"></g><g id="SVGRepo_iconCarrier"> <g transform="translate(1 1)"> <path style="fill:#FFE100;" d="M365.933,118.467c0,61.44-49.493,110.933-110.933,110.933s-110.933-49.493-110.933-110.933 S193.56,7.533,255,7.533S365.933,57.027,365.933,118.467"></path> <path style="fill:#FFA800;" d="M255,7.533c-4.267,0-8.533,0-12.8,0.853c55.467,5.973,98.133,52.907,98.133,110.08 s-42.667,104.107-98.133,110.08c4.267,0.853,8.533,0.853,12.8,0.853c61.44,0,110.933-49.493,110.933-110.933 S316.44,7.533,255,7.533"></path> <path style="fill:#FFFFFF;" d="M255,7.533c4.267,0,8.533,0,12.8,0.853c-55.467,5.973-98.133,52.907-98.133,110.08 s42.667,104.107,98.133,110.08c-4.267,0.853-8.533,0.853-12.8,0.853c-61.44,0-110.933-49.493-110.933-110.933 S193.56,7.533,255,7.533"></path> <path style="fill:#63D3FD;" d="M282.307,188.44c-4.267-1.707-6.827-5.973-6.827-11.093v-12.8c0.853-0.853,1.707-2.56,3.413-4.267 c4.267-5.973,7.68-12.8,10.24-19.627c4.267-0.853,6.827-5.12,6.827-9.387v-12.8c0-2.56-1.707-5.973-3.413-7.68V91.16 c0,0,4.267-29.867-36.693-29.867S219.16,91.16,219.16,91.16v19.627c-1.707,1.707-3.413,4.267-3.413,7.68v13.653 c0,3.413,1.707,6.827,4.267,8.533c3.413,14.507,11.947,24.747,11.947,24.747v11.947c0,4.267-2.56,8.533-5.973,11.093l-30.72,15.36 c-1.707,0.853-4.267,2.56-5.12,4.267C208.067,221.72,231.107,229.4,255,229.4s46.933-7.68,64.853-21.333 c-1.707-1.707-3.413-2.56-5.973-4.267L282.307,188.44z"></path> <g> <path style="fill:#FFE100;" d="M84.333,348.867c-5.12,0-8.533-3.413-8.533-8.533V306.2c0-5.12,3.413-8.533,8.533-8.533 c5.12,0,8.533,3.413,8.533,8.533v34.133C92.867,345.453,89.453,348.867,84.333,348.867z"></path> <path style="fill:#FFE100;" d="M442.733,348.867c-5.12,0-8.533-3.413-8.533-8.533V306.2c0-5.12,3.413-8.533,8.533-8.533 c5.12,0,8.533,3.413,8.533,8.533v34.133C451.267,345.453,447.853,348.867,442.733,348.867z"></path> <path style="fill:#FFE100;" d="M442.733,314.733h-358.4c-5.12,0-8.533-3.413-8.533-8.533s3.413-8.533,8.533-8.533h358.4 c5.12,0,8.533,3.413,8.533,8.533S447.853,314.733,442.733,314.733z"></path> <path style="fill:#FFE100;" d="M263.533,348.867c-5.12,0-8.533-3.413-8.533-8.533v-102.4c0-5.12,3.413-8.533,8.533-8.533 c5.12,0,8.533,3.413,8.533,8.533v102.4C272.067,345.453,268.653,348.867,263.533,348.867z"></path> </g> <g> <path style="fill:#00DA6C;" d="M101.4,391.533c0,14.507-11.093,25.6-25.6,25.6s-25.6-11.093-25.6-25.6s11.093-25.6,25.6-25.6 S101.4,377.027,101.4,391.533"></path> <path style="fill:#00DA6C;" d="M280.6,391.533c0,14.507-11.093,25.6-25.6,25.6c-14.507,0-25.6-11.093-25.6-25.6 s11.093-25.6,25.6-25.6C269.507,365.933,280.6,377.027,280.6,391.533"></path> <path style="fill:#00DA6C;" d="M459.8,391.533c0,14.507-11.093,25.6-25.6,25.6c-14.507,0-25.6-11.093-25.6-25.6 s11.093-25.6,25.6-25.6C448.707,365.933,459.8,377.027,459.8,391.533"></path> <path style="fill:#00DA6C;" d="M109.933,502.467H41.667V485.4c0-18.773,15.36-34.133,34.133-34.133s34.133,15.36,34.133,34.133 V502.467z"></path> <path style="fill:#00DA6C;" d="M289.133,502.467h-68.267V485.4c0-18.773,15.36-34.133,34.133-34.133s34.133,15.36,34.133,34.133 V502.467z"></path> <path style="fill:#00DA6C;" d="M468.333,502.467h-68.267V485.4c0-18.773,15.36-34.133,34.133-34.133 c18.773,0,34.133,15.36,34.133,34.133V502.467z"></path> </g> <path d="M109.933,511H41.667c-5.12,0-8.533-3.413-8.533-8.533V485.4c0-23.893,18.773-42.667,42.667-42.667 s42.667,18.773,42.667,42.667v17.067C118.467,507.587,115.053,511,109.933,511z M50.2,493.933h51.2V485.4 c0-14.507-11.093-25.6-25.6-25.6s-25.6,11.093-25.6,25.6V493.933z"></path> <path d="M75.8,425.667c-18.773,0-34.133-15.36-34.133-34.133S57.027,357.4,75.8,357.4s34.133,15.36,34.133,34.133 S94.573,425.667,75.8,425.667z M75.8,374.467c-9.387,0-17.067,7.68-17.067,17.067S66.413,408.6,75.8,408.6 s17.067-7.68,17.067-17.067S85.187,374.467,75.8,374.467z"></path> <path d="M289.133,511h-68.267c-5.12,0-8.533-3.413-8.533-8.533V485.4c0-23.893,18.773-42.667,42.667-42.667 s42.667,18.773,42.667,42.667v17.067C297.667,507.587,294.253,511,289.133,511z M229.4,493.933h51.2V485.4 c0-14.507-11.093-25.6-25.6-25.6c-14.507,0-25.6,11.093-25.6,25.6V493.933z"></path> <path d="M255,425.667c-18.773,0-34.133-15.36-34.133-34.133S236.227,357.4,255,357.4s34.133,15.36,34.133,34.133 S273.773,425.667,255,425.667z M255,374.467c-9.387,0-17.067,7.68-17.067,17.067S245.613,408.6,255,408.6 s17.067-7.68,17.067-17.067S264.387,374.467,255,374.467z"></path> <path d="M468.333,511h-68.267c-5.12,0-8.533-3.413-8.533-8.533V485.4c0-23.893,18.773-42.667,42.667-42.667 c23.893,0,42.667,18.773,42.667,42.667v17.067C476.867,507.587,473.453,511,468.333,511z M408.6,493.933h51.2V485.4 c0-14.507-11.093-25.6-25.6-25.6c-14.507,0-25.6,11.093-25.6,25.6V493.933z"></path> <path d="M434.2,425.667c-18.773,0-34.133-15.36-34.133-34.133S415.427,357.4,434.2,357.4c18.773,0,34.133,15.36,34.133,34.133 S452.973,425.667,434.2,425.667z M434.2,374.467c-9.387,0-17.067,7.68-17.067,17.067s7.68,17.067,17.067,17.067 s17.067-7.68,17.067-17.067S443.587,374.467,434.2,374.467z"></path> <path d="M75.8,340.333c-5.12,0-8.533-3.413-8.533-8.533v-34.133c0-5.12,3.413-8.533,8.533-8.533c5.12,0,8.533,3.413,8.533,8.533 V331.8C84.333,336.92,80.92,340.333,75.8,340.333z"></path> <path d="M434.2,340.333c-5.12,0-8.533-3.413-8.533-8.533v-34.133c0-5.12,3.413-8.533,8.533-8.533c5.12,0,8.533,3.413,8.533,8.533 V331.8C442.733,336.92,439.32,340.333,434.2,340.333z"></path> <path d="M434.2,306.2H75.8c-5.12,0-8.533-3.413-8.533-8.533s3.413-8.533,8.533-8.533h358.4c5.12,0,8.533,3.413,8.533,8.533 S439.32,306.2,434.2,306.2z"></path> <path d="M255,340.333c-5.12,0-8.533-3.413-8.533-8.533V229.4c0-5.12,3.413-8.533,8.533-8.533s8.533,3.413,8.533,8.533v102.4 C263.533,336.92,260.12,340.333,255,340.333z"></path> <path d="M255,237.933c-65.707,0-119.467-53.76-119.467-119.467S189.293-1,255-1s119.467,53.76,119.467,119.467 S320.707,237.933,255,237.933z M255,16.067c-56.32,0-102.4,46.08-102.4,102.4s46.08,102.4,102.4,102.4s102.4-46.08,102.4-102.4 S311.32,16.067,255,16.067z"></path> <path d="M255,237.933c-25.6,0-49.493-7.68-69.973-23.04l-8.533-5.973l7.68-6.827c2.56-2.56,5.12-4.267,7.68-5.12l29.867-16.213 c0.853-0.853,1.707-1.707,1.707-3.413v-9.387c-2.56-4.267-8.533-12.8-11.093-23.04c-3.413-3.413-5.973-8.533-5.973-13.653v-12.8 c0-3.413,0.853-7.68,3.413-10.24V92.013c0-3.413-0.853-15.36,8.533-25.6c7.68-9.387,20.48-13.653,36.693-13.653 c17.067,0,29.013,4.267,36.693,13.653c9.387,10.24,8.533,22.187,8.533,25.6v15.36c2.56,3.413,3.413,6.827,3.413,10.24v13.653 c0,6.827-3.413,12.8-8.533,15.36c-2.56,6.827-5.973,12.8-10.24,18.773c-0.853,0.853-0.853,1.707-1.707,1.707v9.387 c0,1.707,0.853,2.56,1.707,3.413l32.427,16.213c2.56,1.707,5.12,3.413,7.68,5.12l7.68,6.827l-8.533,5.973 C304.493,230.253,279.747,237.933,255,237.933z M206.36,208.067c29.867,16.213,67.413,16.213,97.28,0l-24.747-12.8 c-6.827-3.413-11.093-10.24-11.093-18.773v-15.36l1.707-2.56c0.853-0.853,1.707-1.707,2.56-3.413 c3.413-5.12,6.827-11.093,8.533-17.92l1.707-4.267l4.267-1.707c0.853,0,0.853-0.853,0.853-1.707v-11.093 c0-0.853,0-0.853-0.853-0.853l-2.56-2.56V91.16c0,0,0.853-7.68-4.267-12.8c-4.267-5.12-12.8-7.68-23.893-7.68 s-19.627,2.56-23.893,7.68c-5.12,5.12-4.267,12.8-4.267,12.8v0.853v23.04l-2.56,2.56l-0.853,0.853v13.653 c0,0.853,0.853,0.853,0.853,0.853l2.56,1.707l0.853,3.413c2.56,11.947,10.24,21.333,10.24,21.333l1.707,2.56v15.36 c0,7.68-4.267,14.507-11.093,17.92L206.36,208.067z"></path> </g> </g></svg>